<svg width="153" height="46" viewBox="0 0 153 46" fill="none" xmlns="http://www.w3.org/2000/svg">
<path d="M20.5178 37H32.7578C41.8378 37 48.0378 31.4 48.0378 23C48.0378 14.6 41.8378 9 32.7578 9H20.5178V37ZM25.7178 32.6V13.4H32.5178C38.7578 13.4 42.7978 17.2 42.7978 23C42.7978 28.8 38.7578 32.6 32.5178 32.6H25.7178ZM61.8447 18.76V15.64H57.0847V37H62.0847V26.64C62.0847 22.28 64.4847 20.04 68.2847 20.04C68.6447 20.04 69.0047 20.08 69.4447 20.16V15.4C65.8847 15.4 63.2847 16.52 61.8447 18.76ZM85.7291 15.4C82.2891 15.4 78.9691 16.28 76.6891 18.04L78.6491 21.68C80.2491 20.36 82.7291 19.56 85.1291 19.56C88.6891 19.56 90.4491 21.28 90.4491 24.2V24.52H84.9291C78.4491 24.52 76.0491 27.32 76.0491 30.88C76.0491 34.6 79.1291 37.28 84.0091 37.28C87.2091 37.28 89.5291 36.24 90.7291 34.4V37H95.4491V24.48C95.4491 18.32 91.8891 15.4 85.7291 15.4ZM85.0491 33.64C82.4891 33.64 80.9691 32.48 80.9691 30.68C80.9691 29.12 81.8891 27.84 85.2891 27.84H90.4491V30.32C89.6091 32.52 87.4891 33.64 85.0491 33.64ZM114.546 11.08C115.586 11.08 116.546 11.44 117.306 11.96L118.706 8.2C117.586 7.4 115.906 7.04 114.186 7.04C109.226 7.04 106.546 9.96 106.546 14.44V15.8H103.026V19.8H106.546V37H111.546V19.8H117.266V15.8H111.386V14.52C111.386 12.24 112.466 11.08 114.546 11.08ZM136.072 32.28C135.312 32.88 134.312 33.16 133.272 33.16C131.352 33.16 130.312 32.04 130.312 29.96V19.8H136.032V15.8H130.312V10.92H125.312V15.8H121.792V19.8H125.312V30.08C125.312 34.8 127.992 37.28 132.672 37.28C134.472 37.28 136.272 36.8 137.472 35.84L136.072 32.28Z" fill="black"/>
<line x1="48" y1="25.5" x2="145" y2="25.5" stroke="white" stroke-width="3"/>
<path d="M5.80078 11.8242C5.34505 11.8242 4.91536 11.7396 4.51172 11.5703C4.12109 11.401 3.77604 11.1667 3.47656 10.8672C3.17708 10.5677 2.94271 10.2227 2.77344 9.83203C2.60417 9.42839 2.51953 8.9987 2.51953 8.54297C2.51953 8.08724 2.60417 7.66406 2.77344 7.27344C2.94271 6.86979 3.17708 6.51823 3.47656 6.21875C3.77604 5.91927 4.12109 5.6849 4.51172 5.51562C4.91536 5.33333 5.34505 5.24219 5.80078 5.24219C6.25651 5.24219 6.67969 5.33333 7.07031 5.51562C7.47396 5.6849 7.82552 5.91927 8.125 6.21875C8.42448 6.51823 8.65885 6.86979 8.82812 7.27344C9.01042 7.66406 9.10156 8.08724 9.10156 8.54297C9.10156 8.9987 9.01042 9.42839 8.82812 9.83203C8.65885 10.2227 8.42448 10.5677 8.125 10.8672C7.82552 11.1667 7.47396 11.401 7.07031 11.5703C6.66667 11.7396 6.24349 11.8242 5.80078 11.8242ZM3.51562 16.5508H8.18359V33.6602H12.3633C12.3242 34.1159 12.2005 34.5521 11.9922 34.9688C11.7969 35.3724 11.543 35.724 11.2305 36.0234C10.931 36.3229 10.5859 36.5638 10.1953 36.7461C9.80469 36.9154 9.39453 37 8.96484 37H7.24609C6.73828 37 6.25651 36.8698 5.80078 36.6094C5.34505 36.349 4.94792 35.9974 4.60938 35.5547C4.27083 35.099 4.00391 34.5716 3.80859 33.9727C3.61328 33.3737 3.51562 32.7292 3.51562 32.0391V16.5508Z" fill="#F20574"/>
<circle cx="149.721" cy="34.7207" r="3" fill="#F6511D"/>
</svg>
