<svg width="244" height="244" viewBox="0 0 244 244" fill="none" xmlns="http://www.w3.org/2000/svg">
<path d="M179.682 141.603C175.759 141.603 172.202 140.76 169.012 139.073C165.859 137.35 163.366 134.985 161.532 131.978C159.736 128.935 158.837 125.506 158.837 121.693C158.837 117.88 159.736 114.47 161.532 111.463C163.366 108.42 165.859 106.055 169.012 104.368C172.202 102.645 175.777 101.783 179.737 101.783C183.074 101.783 186.081 102.37 188.757 103.543C191.471 104.716 193.744 106.403 195.577 108.603L189.857 113.883C187.254 110.876 184.027 109.373 180.177 109.373C177.794 109.373 175.667 109.905 173.797 110.968C171.927 111.995 170.461 113.443 169.397 115.313C168.371 117.183 167.857 119.31 167.857 121.693C167.857 124.076 168.371 126.203 169.397 128.073C170.461 129.943 171.927 131.41 173.797 132.473C175.667 133.5 177.794 134.013 180.177 134.013C184.027 134.013 187.254 132.491 189.857 129.448L195.577 134.728C193.744 136.965 191.471 138.67 188.757 139.843C186.044 141.016 183.019 141.603 179.682 141.603Z" fill="white"/>
<path d="M55.2574 101.443H64.1674V132.683H83.4724V139.943H55.2574V101.443Z" fill="white"/>
<path d="M116.071 149.283C116.19 149.353 116.278 149.426 116.334 149.503C116.39 149.58 116.418 149.678 116.418 149.797C116.418 149.923 116.362 150.067 116.25 150.228C116.131 150.389 116.001 150.592 115.861 150.837C115.714 151.075 115.585 151.362 115.473 151.698C115.354 152.034 115.294 152.436 115.294 152.905C115.294 153.346 115.354 153.735 115.473 154.071C115.585 154.4 115.742 154.676 115.945 154.9C116.141 155.124 116.376 155.296 116.649 155.415C116.915 155.527 117.205 155.583 117.52 155.583C117.926 155.583 118.262 155.481 118.528 155.278C118.794 155.068 119.022 154.795 119.211 154.459C119.4 154.123 119.564 153.742 119.704 153.315C119.844 152.888 119.991 152.45 120.145 152.002C120.292 151.554 120.464 151.117 120.66 150.69C120.856 150.263 121.104 149.881 121.405 149.545C121.699 149.209 122.063 148.94 122.497 148.737C122.924 148.527 123.449 148.422 124.072 148.422C124.737 148.422 125.36 148.537 125.941 148.768C126.522 148.992 127.03 149.321 127.464 149.755C127.898 150.189 128.241 150.725 128.493 151.362C128.738 151.992 128.86 152.709 128.86 153.514C128.86 153.997 128.811 154.466 128.713 154.921C128.622 155.376 128.493 155.807 128.325 156.213C128.15 156.619 127.943 157 127.705 157.357C127.46 157.707 127.187 158.022 126.886 158.302L125.815 157.662C125.731 157.599 125.661 157.525 125.605 157.441C125.549 157.35 125.521 157.249 125.521 157.137C125.521 156.99 125.598 156.822 125.752 156.633C125.906 156.437 126.078 156.199 126.267 155.919C126.449 155.632 126.617 155.292 126.771 154.9C126.925 154.501 127.002 154.018 127.002 153.451C127.002 152.989 126.942 152.576 126.823 152.212C126.697 151.848 126.522 151.544 126.298 151.299C126.067 151.047 125.791 150.854 125.469 150.721C125.147 150.588 124.79 150.522 124.398 150.522C123.957 150.522 123.596 150.623 123.316 150.826C123.036 151.029 122.802 151.299 122.613 151.635C122.424 151.971 122.263 152.352 122.13 152.779C121.997 153.206 121.86 153.644 121.72 154.092C121.573 154.54 121.405 154.977 121.216 155.404C121.027 155.831 120.782 156.213 120.481 156.549C120.173 156.885 119.792 157.154 119.337 157.357C118.875 157.56 118.308 157.662 117.636 157.662C117.097 157.662 116.575 157.557 116.071 157.347C115.567 157.137 115.123 156.832 114.738 156.433C114.346 156.027 114.034 155.53 113.803 154.942C113.565 154.354 113.446 153.682 113.446 152.926C113.446 152.079 113.583 151.302 113.856 150.595C114.122 149.881 114.507 149.262 115.011 148.737L116.071 149.283ZM126.876 133.996L128.692 134.007V143.352H113.614V134.007H115.431V141.105H120.208V135.393H121.962V141.105H126.876V133.996ZM126.813 120.291L128.692 120.291V128.922H113.614V126.685H126.813V120.291ZM126.876 106.448L128.692 106.459V115.804H113.614V106.459H115.431V113.557H120.208V107.845H121.962V113.557H126.876V106.448ZM125.458 91.1704C125.458 91.0444 125.507 90.9359 125.605 90.8449L126.571 89.9629C127.299 90.5789 127.863 91.3314 128.262 92.2204C128.661 93.1024 128.86 94.1664 128.86 95.4124C128.86 96.5044 128.671 97.4949 128.293 98.3839C127.915 99.2659 127.387 100.022 126.708 100.652C126.029 101.275 125.217 101.758 124.272 102.101C123.327 102.444 122.287 102.615 121.153 102.615C120.019 102.615 118.98 102.437 118.035 102.08C117.09 101.716 116.278 101.208 115.599 100.557C114.92 99.9064 114.391 99.1294 114.013 98.2264C113.635 97.3164 113.446 96.3119 113.446 95.2129C113.446 94.1419 113.621 93.1899 113.971 92.3569C114.321 91.5239 114.787 90.7994 115.368 90.1834L116.407 90.9184C116.484 90.9674 116.547 91.0304 116.596 91.1074C116.645 91.1774 116.67 91.2719 116.67 91.3909C116.67 91.5239 116.603 91.6814 116.47 91.8634C116.337 92.0384 116.19 92.2729 116.029 92.5669C115.861 92.8539 115.711 93.2109 115.578 93.6379C115.445 94.0649 115.378 94.5969 115.378 95.2339C115.378 95.9829 115.511 96.6689 115.777 97.2919C116.036 97.9149 116.414 98.4539 116.911 98.9089C117.401 99.3569 118.007 99.7069 118.728 99.9589C119.442 100.204 120.25 100.326 121.153 100.326C122.07 100.326 122.886 100.197 123.6 99.9379C124.314 99.6789 124.919 99.3219 125.416 98.8669C125.913 98.4119 126.291 97.8764 126.55 97.2604C126.809 96.6444 126.939 95.9794 126.939 95.2654C126.939 94.8314 126.914 94.4429 126.865 94.0999C126.809 93.7499 126.729 93.4314 126.624 93.1444C126.519 92.8504 126.386 92.5739 126.225 92.3149C126.057 92.0559 125.857 91.8004 125.626 91.5484C125.577 91.4924 125.539 91.4329 125.511 91.3699C125.476 91.3069 125.458 91.2404 125.458 91.1704ZM115.483 75.1261V79.9141H128.692V82.1401H115.483V86.9491H113.614L113.614 75.1261H115.483Z" fill="white"/>
<path d="M187.17 65.301L147.219 105.253C137.036 115.435 142.505 131.18 146.512 137.779L186.817 178.085" stroke="#D9D9D9" stroke-width="4"/>
<path d="M56.2148 178.084L96.1664 138.133C106.349 127.95 100.88 112.205 96.8735 105.606L56.5684 65.3007" stroke="#D9D9D9" stroke-width="4"/>
</svg>
