<svg width="20" height="23" viewBox="0 0 20 23" fill="none" xmlns="http://www.w3.org/2000/svg">
<path d="M9.17881 16.931C9.51679 17.2689 10.0648 17.2689 10.4027 16.931L15.9104 11.4233C16.2484 11.0853 16.2484 10.5374 15.9104 10.1994C15.5724 9.8614 15.0244 9.8614 14.6865 10.1994L9.79077 15.0951L4.89507 10.1994C4.5571 9.8614 4.00913 9.8614 3.67115 10.1994C3.33317 10.5374 3.33317 11.0853 3.67115 11.4233L9.17881 16.931ZM8.92533 3.78298e-08L8.92533 16.319L10.6562 16.319L10.6562 -3.78298e-08L8.92533 3.78298e-08Z" fill="#383838"/>
<path fill-rule="evenodd" clip-rule="evenodd" d="M0.0109203 19.1747V10.6073H2.86674V19.1655L17.1444 19.1193V10.6073H20.0002V22.0306H17.1444V21.9752L2.86674 22.0213V22.0306H0.0109203V22.0305L0.00971662 22.0305L0.000488281 19.1747L0.0109203 19.1747Z" fill="#383838"/>
</svg>
