<svg width="16" height="16" viewBox="0 0 16 16" fill="none" xmlns="http://www.w3.org/2000/svg">
<path d="M8.00005 0C3.58179 0 0 3.58179 0 8.00005C0 11.9627 2.88417 15.2445 6.6658 15.8799V9.66908H4.73595V7.43404H6.6658V5.786C6.6658 3.87381 7.83371 2.83178 9.53976 2.83178C10.3569 2.83178 11.0591 2.89267 11.2629 2.91948V4.91823L10.0796 4.9188C9.15202 4.9188 8.97318 5.35951 8.97318 6.00645V7.43289H11.1866L10.8979 9.66793H8.97318V15.9334C12.9314 15.4516 16 12.0863 16 7.99776C16 3.58179 12.4182 0 8.00005 0Z" fill="#383838"/>
</svg>
