<svg width="23" height="23" viewBox="0 0 23 23" fill="none" xmlns="http://www.w3.org/2000/svg">
<g clip-path="url(#clip0_481_753)">
<path fill-rule="evenodd" clip-rule="evenodd" d="M13.3028 15.9102C15.5438 15.6455 17.9272 14.8307 17.9272 10.9601C17.9272 9.85999 17.5398 8.96344 16.9088 8.2707C17.0106 8.00611 17.3363 7.00777 16.786 5.62269C16.786 5.62269 15.9712 5.35774 14.0566 6.64103C13.2418 6.41718 12.3455 6.27433 11.5103 6.27433C10.6544 6.27433 9.75788 6.41718 8.9634 6.64103C7.02807 5.35774 6.21328 5.62269 6.21328 5.62269C5.66339 7.00777 5.98943 8.00611 6.09118 8.2707C5.45954 8.9634 5.07249 9.85999 5.07249 10.9601C5.07249 14.8307 7.45591 15.6455 9.69684 15.9102C9.41185 16.1551 9.14695 16.6232 9.04515 17.2752C8.47456 17.5195 6.98737 17.9882 6.09118 16.44C6.09118 16.44 5.56133 15.4827 4.5633 15.4217C4.5633 15.4217 3.56495 15.4013 4.48186 16.0323C4.48186 16.0323 5.15389 16.3383 5.60234 17.4991C5.60234 17.4991 6.21328 19.4347 9.02445 18.8234V20.5548C9.02445 20.8201 8.82095 21.1254 8.31176 21.044C4.31874 19.7197 1.44648 15.9305 1.44648 11.4897C1.44648 5.92803 5.94838 1.42618 11.5103 1.42618C17.0513 1.42618 21.5739 5.92807 21.5535 11.4897C21.5535 15.9305 18.6809 19.6993 14.6882 21.044C14.1787 21.1458 13.9752 20.8405 13.9752 20.5548V17.7644C13.9752 16.8267 13.6692 16.2161 13.3028 15.9102ZM23 11.5103C23 5.15389 17.8458 0 11.5103 0C5.15389 0 0 5.15389 0 11.5103C0 17.8458 5.15389 23 11.5103 23C17.8458 23 23 17.8458 23 11.5103Z" fill="#0C0C0C"/>
</g>
<defs>
<clipPath id="clip0_481_753">
<rect width="23" height="23" fill="white"/>
</clipPath>
</defs>
</svg>
