<svg width="16" height="13" viewBox="0 0 16 13" fill="none" xmlns="http://www.w3.org/2000/svg">
<path d="M15.9687 1.54849C15.3697 1.81214 14.7351 1.98617 14.0853 2.06498C14.7694 1.65395 15.2816 1.00936 15.5273 0.250253C14.8933 0.62013 14.1907 0.889373 13.4427 1.03932C12.9492 0.511786 12.2952 0.161897 11.5824 0.0439897C10.8696 -0.0739175 10.1378 0.0467547 9.50062 0.387268C8.86345 0.727781 8.35657 1.26908 8.0587 1.92711C7.76083 2.58514 7.68864 3.32307 7.85333 4.02633C5.12667 3.8977 2.71133 2.58814 1.09333 0.610133C0.799196 1.10984 0.645776 1.67979 0.649333 2.25958C0.649333 3.3992 1.22933 4.40087 2.108 4.98934C1.58724 4.97277 1.07798 4.83201 0.622667 4.57881V4.61879C0.622371 5.37614 0.884179 6.11026 1.36367 6.69661C1.84316 7.28296 2.51081 7.68542 3.25333 7.83572C2.7722 7.9646 2.26828 7.98396 1.77867 7.89237C1.98941 8.54416 2.39844 9.11392 2.94868 9.52216C3.49891 9.93039 4.1629 10.1567 4.848 10.1696C3.68769 11.0799 2.25498 11.574 0.78 11.5725C0.52 11.5725 0.260667 11.5571 0 11.5278C1.50381 12.4904 3.25234 13.0013 5.038 13C11.0733 13 14.37 8.00433 14.37 3.67978C14.37 3.53982 14.37 3.39987 14.36 3.25992C15.004 2.79665 15.5595 2.22147 16 1.56182L15.9687 1.54849Z" fill="#383838"/>
</svg>
